<?xml version="1.0" encoding="utf-8"?>
<!-- Generator: Adobe Illustrator 25.4.1, SVG Export Plug-In . SVG Version: 6.00 Build 0)  -->
<svg version="1.1" id="Layer_1" xmlns="http://www.w3.org/2000/svg" xmlns:xlink="http://www.w3.org/1999/xlink" x="0px" y="0px"
	 viewBox="0 0 2299 1119" style="enable-background:new 0 0 2299 1119;" xml:space="preserve">
<style type="text/css">
	.st0{fill:#231F20;}
	.st1{fill:#278CCC;}
	.st2{fill:#F3A71D;}
</style>
<g>
	<g>
		<g>
			<g>
				<path class="st0" d="M156.8,997.1h-46.4c0.6,5.8,2.5,10.3,5.7,13.4c3.2,3.1,7.4,4.7,12.7,4.7c4.1,0,7.4-0.8,10.1-2.3
					c2.7-1.6,4.8-3.8,6.4-6.8l10.8,5.1c-2.2,4.6-5.7,8.3-10.5,10.9c-4.8,2.6-10.3,3.9-16.5,3.9c-6.3,0-11.9-1.3-16.7-3.9
					c-4.8-2.6-8.6-6.4-11.2-11.4c-2.7-5-4-10.9-4-17.6c0-6.8,1.3-12.6,3.9-17.6c2.6-5,6.3-8.8,11-11.4c4.7-2.6,10.1-3.9,16.2-3.9
					c6,0,11.2,1.3,15.5,3.8c4.4,2.5,7.7,6,10,10.4c2.3,4.4,3.5,9.4,3.5,15C157.3,991.9,157.1,994.5,156.8,997.1z M116.4,974.9
					c-3,2.7-4.9,6.6-5.8,11.8H144c-0.3-5.1-1.9-9-4.7-11.7c-2.8-2.7-6.6-4.1-11.3-4.1C123.3,970.8,119.4,972.2,116.4,974.9z"/>
				<path class="st0" d="M279,966.1c4.4,4.1,6.7,9.9,6.7,17.5v41.1h-13.6v-36.9c0-11.1-4.5-16.6-13.6-16.6c-4.7,0-8.8,1.6-12.2,4.9
					c-3.4,3.3-5.1,8.2-5.1,14.9v33.7h-13.6v-63.4h12l0.6,11c2-4.1,4.9-7.2,8.6-9.3c3.7-2,8-3,12.8-3
					C268.8,960.1,274.5,962.1,279,966.1z"/>
				<path class="st0" d="M418.6,1015l-0.8,9.4c-2.2,0.9-4.6,1.4-7.4,1.4c-3.5-0.1-6.4-0.9-8.9-2.4c-2.5-1.5-4.1-3.8-4.8-6.7
					c-2,3-4.9,5.4-8.6,7c-3.7,1.6-7.5,2.4-11.6,2.4c-6.3,0-11.3-1.5-15.2-4.5c-3.8-3-5.8-7.2-5.8-12.7c0-4.6,1.5-8.5,4.6-11.5
					c3.1-3,7.5-5.2,13.1-6.3l22.6-4.4V984c0-4.1-1.2-7.4-3.5-9.8c-2.3-2.4-5.5-3.6-9.6-3.6c-8.2,0-13.4,3.8-15.7,11.3l-11.4-4.8
					c1.6-5.3,4.8-9.5,9.6-12.6c4.8-3,10.8-4.6,18.1-4.6c7.9,0,14.2,1.9,18.9,5.8c4.7,3.8,7.1,9.4,7.1,16.8v28.3
					c0,3.1,1.6,4.7,4.7,4.7C415.7,1015.6,417.2,1015.4,418.6,1015z M391.3,1011.9c3.2-2.4,4.8-5.9,4.8-10.7v-5.3l-16,3.3
					c-3.7,0.8-6.4,1.8-8.1,3c-1.7,1.3-2.5,3.1-2.5,5.5c0,2.4,0.9,4.2,2.7,5.6c1.8,1.4,4.2,2.1,7.3,2.1
					C384.2,1015.5,388.1,1014.3,391.3,1011.9z"/>
				<path class="st0" d="M533.4,964c4.2,2.7,7.6,6.5,10,11.5c2.5,5,3.7,10.9,3.7,17.6c0,6.7-1.2,12.5-3.7,17.5
					c-2.5,5-5.8,8.8-10.1,11.4c-4.3,2.6-9.1,3.9-14.3,3.9c-4.8,0-9.1-1.2-12.9-3.6s-6.6-5.6-8.5-9.7l-0.6,12h-11.9v-91.9h13.6v39.1
					c1.9-3.5,4.7-6.4,8.4-8.6c3.6-2.2,7.8-3.2,12.4-3.2C524.4,960.1,529.1,961.4,533.4,964z M528.9,1009.3c3.1-3.9,4.6-9.3,4.6-16.2
					c0-6.9-1.5-12.3-4.6-16.2c-3-3.8-7.3-5.8-12.8-5.8c-5.3,0-9.6,2-12.8,6.1c-3.2,4.1-4.8,9.4-4.8,16.1c0,6.7,1.6,12,4.8,15.9
					s7.4,5.9,12.7,5.9C521.5,1015.1,525.8,1013.1,528.9,1009.3z"/>
				<path class="st0" d="M630.9,1007c0,3,0.5,5.2,1.6,6.4c1.1,1.2,2.9,1.8,5.5,1.8c1.6,0,2.9-0.1,3.9-0.3c1-0.2,2.3-0.6,3.9-1.2
					l-1.5,10.1c-2.9,1.4-6.4,2.2-10.5,2.2c-5.7,0-9.8-1.4-12.5-4.3c-2.7-2.9-4-7.4-4-13.6v-75.3h13.6V1007z"/>
				<path class="st0" d="M710.6,948.5c-1.6-1.5-2.4-3.6-2.4-6.3c0-2.7,0.8-4.8,2.4-6.2c1.6-1.4,3.8-2.2,6.7-2.2
					c2.9,0,5.1,0.7,6.7,2.2c1.6,1.4,2.3,3.5,2.3,6.2c0,2.7-0.8,4.8-2.3,6.3c-1.6,1.5-3.8,2.2-6.7,2.2
					C714.5,950.7,712.2,949.9,710.6,948.5z M724.1,1024.7h-13.6v-63.4h13.6V1024.7z"/>
				<path class="st0" d="M849.8,966.1c4.4,4.1,6.7,9.9,6.7,17.5v41.1h-13.6v-36.9c0-11.1-4.5-16.6-13.6-16.6
					c-4.7,0-8.8,1.6-12.2,4.9c-3.4,3.3-5.1,8.2-5.1,14.9v33.7h-13.6v-63.4h12l0.6,11c2-4.1,4.9-7.2,8.6-9.3c3.7-2,8-3,12.8-3
					C839.6,960.1,845.3,962.1,849.8,966.1z"/>
				<path class="st0" d="M978.6,960.3c-2.3,1.4-3.7,3.4-4.1,6.2c4.5,4,6.7,9,6.7,15c0,6.4-2.5,11.6-7.5,15.5
					c-5,3.9-11.6,5.9-19.9,5.9c-3.4,0-6.6-0.3-9.5-1c-4.2,1.3-6.3,3.5-6.3,6.7c0,4.1,3,6.2,9,6.2h19c6.4,0,11.4,1.4,15,4.2
					c3.6,2.8,5.3,6.7,5.3,11.7c0,6.6-3,11.8-8.9,15.5c-6,3.8-13.6,5.6-23,5.6c-10.1,0-17.7-1.5-22.8-4.6c-5.2-3.1-7.7-7.2-7.7-12.2
					c0-3,0.9-5.7,2.7-7.9c1.8-2.2,4.5-3.7,8.2-4.6c-5.1-2.2-7.6-6-7.6-11.3c0-2.8,0.8-5.3,2.5-7.4c1.6-2.2,4-3.8,7-4.9
					c-3.3-1.9-5.8-4.3-7.5-7.3c-1.7-3-2.5-6.4-2.5-10.3c0-6.4,2.5-11.6,7.5-15.5c5-3.9,11.6-5.9,19.8-5.9c5.2,0,9.9,0.8,14.1,2.5
					c0.7-4.5,2.6-8.1,5.9-10.7c3.3-2.7,7.3-4,12.2-3.9l2.2,10.5C984.1,958.4,980.9,959,978.6,960.3z M943.5,1026
					c-2.5,0-4.5,0.6-6,1.9c-1.6,1.3-2.3,2.9-2.3,4.9c0,2.8,1.7,5,5.1,6.6c3.4,1.6,8.1,2.4,14.1,2.4c6.7,0,11.7-0.9,15.2-2.7
					c3.5-1.8,5.2-4,5.2-6.7c0-2.1-0.8-3.7-2.5-4.8c-1.6-1.1-4.4-1.6-8.3-1.6H943.5z M963.6,990.2c2.6-2.2,3.9-5.1,3.9-8.7
					c0-3.5-1.3-6.4-3.9-8.6c-2.6-2.2-5.9-3.3-9.8-3.3c-3.9,0-7.1,1.1-9.7,3.3c-2.6,2.2-3.9,5.1-3.9,8.6c0,3.6,1.3,6.4,3.9,8.7
					c2.6,2.2,5.8,3.4,9.7,3.4C957.8,993.5,961.1,992.4,963.6,990.2z"/>
				<path class="st0" d="M1153.1,1022.3c-5.2-2.5-9.4-5.9-12.4-10.4l9.4-8.1c1.9,3.6,4.7,6.3,8.2,8.4c3.5,2,7.7,3,12.4,3
					c3.9,0,7-0.7,9.3-2.1c2.3-1.4,3.4-3.3,3.4-5.6c0-1.8-0.6-3.3-1.7-4.4c-1.1-1.2-3.1-2.1-5.9-2.7l-13.3-2.8
					c-6.6-1.3-11.4-3.4-14.3-6.4c-3-3-4.4-6.9-4.4-11.6c0-3.5,1-6.7,3.1-9.7c2.1-3,5.1-5.4,9.1-7.2c4-1.8,8.6-2.7,13.9-2.7
					c6.3,0,11.6,1.1,16.2,3.4c4.5,2.2,8,5.4,10.3,9.6l-9.4,7.9c-1.6-3.2-3.9-5.7-7-7.4c-3-1.7-6.3-2.6-9.9-2.6
					c-4.1,0-7.2,0.7-9.5,2.2c-2.3,1.5-3.4,3.4-3.4,5.8c0,1.8,0.7,3.3,2,4.5c1.3,1.2,3.6,2.2,6.8,2.9l14.5,3
					c5.8,1.2,10.1,3.2,12.7,5.9c2.6,2.7,3.9,6.2,3.9,10.5c0,6.2-2.4,11.1-7.2,14.8c-4.8,3.7-11.2,5.6-19.3,5.6
					C1164.2,1026,1158.4,1024.8,1153.1,1022.3z"/>
				<path class="st0" d="M1310.5,964c4.7,2.6,8.4,6.4,11.1,11.4c2.7,5,4,10.9,4,17.6c0,6.8-1.3,12.6-4,17.6
					c-2.7,5-6.4,8.8-11.1,11.4c-4.7,2.6-10.2,3.9-16.4,3.9c-6.2,0-11.6-1.3-16.4-3.9c-4.8-2.6-8.5-6.4-11.2-11.4
					c-2.7-5-4-10.9-4-17.6c0-6.8,1.3-12.6,4-17.6c2.7-5,6.4-8.8,11.2-11.4c4.8-2.6,10.2-3.9,16.4-3.9
					C1300.3,960.1,1305.7,961.4,1310.5,964z M1280.9,976.5c-3.2,3.9-4.8,9.4-4.8,16.5c0,7.1,1.6,12.6,4.8,16.5
					c3.2,3.9,7.6,5.8,13.2,5.8c5.6,0,10-1.9,13.1-5.8c3.2-3.9,4.8-9.4,4.8-16.5c0-7.1-1.6-12.6-4.8-16.5c-3.2-3.9-7.5-5.8-13.1-5.8
					C1288.5,970.7,1284,972.7,1280.9,976.5z"/>
				<path class="st0" d="M1409.1,1007c0,3,0.5,5.2,1.6,6.4c1.1,1.2,2.9,1.8,5.5,1.8c1.6,0,2.9-0.1,3.9-0.3c1-0.2,2.3-0.6,3.9-1.2
					l-1.5,10.1c-2.9,1.4-6.4,2.2-10.5,2.2c-5.7,0-9.8-1.4-12.5-4.3c-2.7-2.9-4-7.4-4-13.6v-75.3h13.6V1007z"/>
				<path class="st0" d="M1494.7,1020.3c-4.3-3.8-6.5-9.5-6.5-17.2v-41.8h13.6v38.4c0,5.5,1.2,9.4,3.5,11.7
					c2.3,2.3,5.8,3.4,10.5,3.4c4.6,0,8.6-1.6,11.8-4.8c3.2-3.2,4.8-8,4.8-14.3v-34.4h13.6v63.4H1534l-0.6-10.3
					c-4.1,7.7-11.5,11.5-22.1,11.5C1504.5,1026,1499,1024.1,1494.7,1020.3z"/>
				<path class="st0" d="M1661.7,1020.5c-4.1,3.6-9.7,5.5-16.6,5.5c-6,0-10.8-1.5-14.3-4.4c-3.6-2.9-5.4-7.5-5.5-13.6v-36h-12.2
					v-10.7h12.2v-14.8l13.6-3.8v18.6h21.8V972h-21.8v33.7c0,3,0.8,5.3,2.4,6.8c1.6,1.5,3.8,2.2,6.7,2.2c4.1,0,7.7-1.4,10.7-4.1
					L1661.7,1020.5z"/>
				<path class="st0" d="M1727.5,948.5c-1.6-1.5-2.4-3.6-2.4-6.3c0-2.7,0.8-4.8,2.4-6.2c1.6-1.4,3.8-2.2,6.7-2.2
					c2.9,0,5.1,0.7,6.7,2.2c1.6,1.4,2.3,3.5,2.3,6.2c0,2.7-0.8,4.8-2.3,6.3c-1.6,1.5-3.8,2.2-6.7,2.2
					C1731.3,950.7,1729.1,949.9,1727.5,948.5z M1740.9,1024.7h-13.6v-63.4h13.6V1024.7z"/>
				<path class="st0" d="M1859.2,964c4.7,2.6,8.4,6.4,11.1,11.4c2.7,5,4,10.9,4,17.6c0,6.8-1.3,12.6-4,17.6
					c-2.7,5-6.4,8.8-11.1,11.4c-4.7,2.6-10.2,3.9-16.4,3.9c-6.2,0-11.6-1.3-16.4-3.9c-4.8-2.6-8.5-6.4-11.2-11.4
					c-2.7-5-4-10.9-4-17.6c0-6.8,1.3-12.6,4-17.6c2.7-5,6.4-8.8,11.2-11.4c4.8-2.6,10.2-3.9,16.4-3.9
					C1849,960.1,1854.5,961.4,1859.2,964z M1829.6,976.5c-3.2,3.9-4.8,9.4-4.8,16.5c0,7.1,1.6,12.6,4.8,16.5
					c3.2,3.9,7.6,5.8,13.2,5.8c5.6,0,10-1.9,13.1-5.8c3.2-3.9,4.8-9.4,4.8-16.5c0-7.1-1.6-12.6-4.8-16.5c-3.2-3.9-7.5-5.8-13.1-5.8
					C1837.2,970.7,1832.8,972.7,1829.6,976.5z"/>
				<path class="st0" d="M1996,966.1c4.4,4.1,6.7,9.9,6.7,17.5v41.1h-13.6v-36.9c0-11.1-4.5-16.6-13.6-16.6c-4.7,0-8.8,1.6-12.2,4.9
					c-3.4,3.3-5.1,8.2-5.1,14.9v33.7h-13.6v-63.4h12l0.6,11c2-4.1,4.9-7.2,8.6-9.3c3.7-2,8-3,12.8-3
					C1985.8,960.1,1991.5,962.1,1996,966.1z"/>
				<path class="st0" d="M2083.1,1022.3c-5.2-2.5-9.4-5.9-12.4-10.4l9.4-8.1c1.9,3.6,4.7,6.3,8.2,8.4c3.5,2,7.7,3,12.4,3
					c3.9,0,7-0.7,9.3-2.1c2.3-1.4,3.4-3.3,3.4-5.6c0-1.8-0.6-3.3-1.7-4.4c-1.1-1.2-3.1-2.1-5.9-2.7l-13.3-2.8
					c-6.6-1.3-11.4-3.4-14.3-6.4c-3-3-4.4-6.9-4.4-11.6c0-3.5,1-6.7,3.1-9.7c2.1-3,5.1-5.4,9.1-7.2c4-1.8,8.6-2.7,13.9-2.7
					c6.3,0,11.6,1.1,16.2,3.4c4.5,2.2,8,5.4,10.3,9.6l-9.4,7.9c-1.6-3.2-3.9-5.7-7-7.4c-3-1.7-6.3-2.6-9.9-2.6
					c-4.1,0-7.2,0.7-9.5,2.2c-2.3,1.5-3.4,3.4-3.4,5.8c0,1.8,0.7,3.3,2,4.5c1.3,1.2,3.6,2.2,6.8,2.9l14.5,3
					c5.8,1.2,10.1,3.2,12.7,5.9c2.6,2.7,3.9,6.2,3.9,10.5c0,6.2-2.4,11.1-7.2,14.8c-4.8,3.7-11.2,5.6-19.3,5.6
					C2094.2,1026,2088.4,1024.8,2083.1,1022.3z"/>
			</g>
		</g>
	</g>
	<g>
		<g>
			<g>
				<g>
					<g>
						<g>
							<g>
								<g>
									<path class="st1" d="M1200.7,697l0.9,12.1c7.6-9.4,18-14.1,31-14.1c13.9,0,23.5,5.5,28.7,16.5c7.6-11,18.4-16.5,32.4-16.5
										c11.7,0,20.4,3.4,26.2,10.2c5.7,6.8,8.6,17.1,8.6,30.8v69h-28.9v-69c0-6.1-1.2-10.6-3.6-13.5c-2.4-2.8-6.6-4.3-12.7-4.3
										c-8.6,0-14.7,4.1-18,12.4l0.1,74.4h-28.9v-68.9c0-6.3-1.2-10.8-3.7-13.6c-2.5-2.8-6.7-4.2-12.6-4.2
										c-8.2,0-14.1,3.4-17.8,10.2v76.5h-28.9V697H1200.7z"/>
								</g>
							</g>
							<g>
								<g>
									<path class="st1" d="M1502.6,807.1c-15.9,0-28.7-4.9-38.7-14.6c-9.9-9.7-14.9-22.7-14.9-38.8v-2.8
										c0-10.8,2.1-20.5,6.3-29.1c4.2-8.5,10.1-15.1,17.8-19.8c7.7-4.6,16.4-6.9,26.3-6.9c14.8,0,26.4,4.7,34.9,14
										c8.5,9.3,12.7,22.5,12.7,39.6v11.8h-68.8c0.9,7.1,3.7,12.7,8.4,17c4.7,4.3,10.6,6.4,17.8,6.4c11.1,0,19.8-4,26.1-12.1
										l14.2,15.9c-4.3,6.1-10.2,10.9-17.6,14.3C1519.8,805.3,1511.6,807.1,1502.6,807.1z M1499.3,718.3c-5.7,0-10.4,1.9-13.9,5.8
										c-3.6,3.9-5.8,9.4-6.8,16.6h40.1v-2.3c-0.1-6.4-1.9-11.4-5.2-14.9C1510.2,720.1,1505.5,718.3,1499.3,718.3z"/>
								</g>
							</g>
							<g>
								<g>
									<path class="st1" d="M1661.2,750.3c0-16.8,3.8-30.2,11.3-40.2c7.5-10,17.9-15,31-15c10.5,0,19.2,3.9,26.1,11.8v-55.1h28.9
										v153.4h-26l-1.4-11.5c-7.2,9-16.4,13.5-27.7,13.5c-12.7,0-22.9-5-30.6-15S1661.2,768.1,1661.2,750.3z M1690,752.3
										c0,10.2,1.8,17.9,5.3,23.4c3.5,5.4,8.6,8.1,15.4,8.1c8.9,0,15.2-3.8,18.9-11.3v-42.8c-3.6-7.6-9.8-11.3-18.7-11.3
										C1697,718.3,1690,729.6,1690,752.3z"/>
								</g>
							</g>
							<g>
								<g>
									<path class="st1" d="M1882.9,669.1c0-4.3,1.4-7.9,4.3-10.7c2.9-2.8,6.8-4.2,11.8-4.2c4.9,0,8.9,1.4,11.8,4.2
										c2.9,2.8,4.4,6.4,4.4,10.7c0,4.4-1.5,8-4.4,10.8s-6.9,4.2-11.7,4.2c-4.9,0-8.8-1.4-11.7-4.2S1882.9,673.5,1882.9,669.1z
										 M1913.6,805.1h-28.9V697h28.9V805.1z"/>
								</g>
							</g>
							<g>
								<g>
									<path class="st1" d="M2102.2,805.1c-1.3-2.6-2.3-5.8-2.9-9.7c-7,7.8-16.1,11.7-27.3,11.7c-10.6,0-19.4-3.1-26.3-9.2
										c-7-6.1-10.4-13.8-10.4-23.2c0-11.5,4.2-20.2,12.7-26.4c8.5-6.1,20.7-9.2,36.8-9.3h13.3v-6.2c0-5-1.3-9-3.8-12
										c-2.6-3-6.6-4.5-12.1-4.5c-4.9,0-8.7,1.2-11.4,3.5c-2.8,2.3-4.1,5.5-4.1,9.6h-28.9c0-6.3,1.9-12,5.8-17.4
										c3.9-5.3,9.3-9.5,16.4-12.5c7-3,15-4.5,23.8-4.5c13.3,0,23.9,3.4,31.7,10s11.7,16.1,11.7,28.2v46.8
										c0.1,10.3,1.5,18,4.3,23.3v1.7H2102.2z M2078.3,785c4.3,0,8.2-0.9,11.8-2.8c3.6-1.9,6.3-4.4,8-7.6v-18.6h-10.8
										c-14.4,0-22.1,5-23.1,15l-0.1,1.7c0,3.6,1.3,6.6,3.8,8.9C2070.5,783.8,2073.9,785,2078.3,785z"/>
								</g>
							</g>
						</g>
					</g>
					<path class="st2" d="M922.9,60.4c145.9,0,163,50.2,163,50.2s-98.2-3.3-163,108.3c-64.7-111.6-163-108.3-163-108.3
						S777,60.4,922.9,60.4z"/>
					<g>
						<g>
							<path class="st1" d="M2210.4,588.3l-105.9-106v22.2c-9.2,8.3-18.1,15.3-26.6,19.6c-11.7,5.9-25.3,8.8-40.6,8.8
								c-28.3,0-51.1-10.5-68.3-31.4c-17.9-22.2-26.8-57.9-26.8-107.1c0-48.6,8.9-84,26.8-106.2c17.2-20.9,40-31.4,68.3-31.4
								c15.4,0,28.9,2.9,40.6,8.8c7.4,3.7,15.1,9.5,23,16.3v26.6l13.9-13.9c0,0,0,0,0,0l81.3-81.3c0,0,0,0-0.1-0.1l10.8-10.8
								l-22.1,0c-18-16.6-37.5-29.4-58.9-38.1c-25.9-10.5-55.4-15.7-88.6-15.7c-26.5,0-52.2,4-77.1,12c-24.9,8-47.9,21.2-68.8,39.7
								c-20.9,18.5-37.7,43.9-50.3,76.2c-12.6,32.3-18.9,71.6-18.9,117.7c0,46.2,6.3,85.4,18.9,117.7c12.6,32.3,29.4,57.9,50.3,76.6
								c20.9,18.8,43.9,32.2,68.8,40.2c24.9,8,50.6,12,77.1,12c57.3,0,105.7-17.6,145.2-52.7L2210.4,588.3z"/>
						</g>
						<g>
							<path class="st1" d="M710.8,325.4c-20.5,0-37.1,16.6-37.1,37.1c0,20.5,16.6,37.1,37.1,37.1c20.5,0,37.1-16.6,37.1-37.1
								C747.9,342,731.3,325.4,710.8,325.4z"/>
						</g>
						<g>
							<path class="st1" d="M1133.2,325.4c-20.5,0-37.1,16.6-37.1,37.1c0,20.5,16.6,37.1,37.1,37.1c20.5,0,37.1-16.6,37.1-37.1
								C1170.3,342,1153.7,325.4,1133.2,325.4z"/>
						</g>
						<g>
							<g>
								<path class="st1" d="M1327.2,214.2l64.9-65h-64.9h0h-191.3l0,0c-112.2,0.4-175.2,54.9-188,162h-46.7
									c-12.8-107.5-76.4-162.1-189.8-162.1c0,0-0.1,0-0.1,0v0H520h0h-64.9l64.9,65v135.3c0,1.6-0.1,3.1-0.1,4.8v448h100.6V558.5
									h90.9c107.4,0,170-48.8,187.2-145h46.7v388.8H1046V558.5h90.9c127.6,0,192.3-68.7,192.3-204.2c0-13.3-0.8-25.7-2-37.7V214.2
									z M786.1,431.6c-13.8,17.9-39,27-74.7,27h-90.9V354.3c0-36.3,5.7-62.3,17.1-77.6c13.3-18.3,38.2-27.5,73.8-27.5
									c35.7,0,60.8,9.3,74.6,27.6c11.3,15.1,17,41.2,17,77.5C803,390.1,797.3,416.2,786.1,431.6z M1211.6,431.6
									c-13.8,17.9-39,27-74.7,27H1046V354.3c0-36.3,5.7-62.3,17.1-77.6c13.3-18.3,38.2-27.5,73.8-27.5c35.7,0,60.8,9.3,74.6,27.6
									c11.3,15.1,17,41.2,17,77.5C1228.6,390.1,1222.8,416.2,1211.6,431.6z"/>
							</g>
						</g>
						<g>
							<path class="st1" d="M457.6,349.7V322c0-113.3-68.3-170-205.1-170c-41.2,0-74.7,4.8-100.6,14.3c-21.1,7.8-41,21-60,39.2
								l-26.1,0l100.9,101v-24.6c9.3-8.8,18.7-15.3,28.1-19.5c13.3-5.8,31-8.7,53.2-8.7c31.9,0,54.9,5.9,68.8,18
								c13.9,12,20.7,31.2,20.7,57.7v24H224c-53.5,0-94.3,13.1-122.4,39.3c-28,26.1-42,59.5-42,100.1c0,44.3,13.3,80.3,39.8,108.1
								c18.1,18.2,41.5,30.6,70.2,37c3,0.7,14.9,2.1,22.4,2.2c27.7,0.1,85.5-9.9,85.5-96.9c-9.2,1.5-20.3,2.2-33.2,2.2
								c-22.7,0-40-4.9-51.6-14.7c-11.8-9.9-17.6-23.4-17.6-40.7c0-36.3,22.5-54.4,67.4-54.4h35.1h59.9h0.1v25.9
								c0,1.9,0,3.6-0.1,5.4v66.8h-0.1v105h43.2c0.8,0.1,1.6,0.1,1.9,0.1c0.1,0,0.1,0,0.1,0h75.1V441.2l45.9-45.7L457.6,349.7z"/>
						</g>
						<g>
							<path class="st1" d="M1757.5,349.7V322c0-113.3-68.3-170-205.1-170c-41.2,0-74.7,4.8-100.6,14.3c-21.1,7.8-41,21-60,39.2
								l-26.1,0l100.9,101v-24.6c9.3-8.8,18.7-15.3,28.1-19.5c13.3-5.8,31-8.7,53.2-8.7c31.9,0,54.9,5.9,68.8,18
								c13.9,12,20.7,31.2,20.7,57.7v24h-113.5c-53.5,0-94.3,13.1-122.4,39.3c-28,26.1-42,59.5-42,100.1
								c0,44.3,13.3,80.3,39.8,108.1c18.1,18.2,41.5,30.6,70.2,37c3,0.7,14.9,2.1,22.4,2.2c27.7,0.1,85.5-9.9,85.5-96.9
								c-9.2,1.5-20.3,2.2-33.2,2.2c-22.7,0-40-4.9-51.6-14.7c-11.8-9.9-17.6-23.4-17.6-40.7c0-36.3,22.5-54.4,67.4-54.4h35.1h59.9
								h0.1v25.9c0,1.9,0,3.6-0.1,5.4v66.8h-0.1v105h43.2c0.8,0.1,1.6,0.1,1.9,0.1c0.1,0,0.1,0,0.1,0h75.1V441.2l45.9-45.7
								L1757.5,349.7z"/>
						</g>
					</g>
				</g>
				<g>
					<g>
						<g>
							<path class="st1" d="M2192.3,65.4c5.6,3.3,10,7.7,13.3,13.4c3.2,5.6,4.9,11.8,4.9,18.4c0,6.6-1.6,12.7-4.9,18.4
								c-3.2,5.7-7.7,10.2-13.3,13.5c-5.6,3.4-11.8,5-18.6,5c-6.7,0-12.9-1.7-18.5-5c-5.6-3.3-10-7.8-13.2-13.4
								c-3.2-5.6-4.8-11.7-4.8-18.3c0-6.6,1.6-12.7,4.9-18.4c3.3-5.7,7.7-10.2,13.3-13.5c5.6-3.4,11.8-5,18.6-5
								C2180.5,60.4,2186.7,62.1,2192.3,65.4z M2187.8,121.3c4.3-2.5,7.6-5.9,10.1-10.2c2.5-4.3,3.7-8.9,3.7-14
								c0-5.1-1.2-9.7-3.7-13.9c-2.5-4.2-5.8-7.6-10.1-10.1c-4.3-2.5-9-3.7-14.1-3.7c-5.2,0-9.9,1.3-14.1,3.8
								c-4.2,2.5-7.6,5.9-10,10.2c-2.5,4.3-3.7,8.9-3.7,14c0,5.1,1.2,9.7,3.6,13.9c2.4,4.2,5.7,7.6,10,10.1c4.2,2.5,8.9,3.7,14,3.7
								C2178.8,125.1,2183.5,123.8,2187.8,121.3z M2187.6,97.6c-1,1.9-2.6,3.3-4.6,4.3l7.3,11.3h-10.1l-5.1-9.5h-0.3h-6.2v9.5h-8.8
								V78.8h14.9c4.6,0,8.2,1,10.7,3.1c2.5,2.1,3.7,5.1,3.7,8.9C2189.2,93.5,2188.7,95.7,2187.6,97.6z M2168.6,96.7h6.2
								c1.9,0,3.3-0.5,4.4-1.5c1-1,1.6-2.3,1.6-4.1c0-1.8-0.5-3.2-1.6-4.1c-1-0.9-2.5-1.4-4.4-1.4h-6.2V96.7z"/>
						</g>
					</g>
				</g>
			</g>
		</g>
	</g>
</g>
</svg>
